<svg width="15" height="18" viewBox="0 0 15 18" fill="none" xmlns="http://www.w3.org/2000/svg">
<path d="M0.863953 2.22061V15.5633C0.863953 16.1531 1.09824 16.7187 1.51528 17.1358C1.93233 17.5528 2.49795 17.7871 3.08774 17.7871H13.6507C13.7982 17.7871 13.9396 17.7285 14.0438 17.6243C14.1481 17.52 14.2067 17.3786 14.2067 17.2312C14.2067 17.0837 14.1481 16.9423 14.0438 16.8381C13.9396 16.7338 13.7982 16.6752 13.6507 16.6752H3.08774C2.79285 16.6752 2.51003 16.5581 2.30151 16.3496C2.09299 16.141 1.97585 15.8582 1.97585 15.5633H13.0948C13.3897 15.5633 13.6725 15.4462 13.881 15.2377C14.0895 15.0291 14.2067 14.7463 14.2067 14.4514V2.22061C14.2067 1.63083 13.9724 1.0652 13.5553 0.648158C13.1383 0.231117 12.5727 -0.00317383 11.9829 -0.00317383H3.08774C2.49795 -0.00317383 1.93233 0.231117 1.51528 0.648158C1.09824 1.0652 0.863953 1.63083 0.863953 2.22061V2.22061ZM11.9829 1.10872C12.2778 1.10872 12.5606 1.22587 12.7691 1.43439C12.9776 1.64291 13.0948 1.92572 13.0948 2.22061V14.4514H1.97585V2.22061C1.97585 1.92572 2.09299 1.64291 2.30151 1.43439C2.51003 1.22587 2.79285 1.10872 3.08774 1.10872H11.9829ZM6.15657 4.89916C6.36783 4.6779 6.76811 4.4444 7.53531 4.4444C8.30252 4.4444 8.7028 4.67901 8.91406 4.89916C9.13644 5.13266 9.20315 5.40619 9.20315 5.55629C9.20315 6.06109 8.90294 6.33239 8.39925 6.58368C8.27371 6.64492 8.14654 6.70275 8.01787 6.75714L7.99341 6.76826C7.87152 6.81866 7.75137 6.87317 7.63316 6.93171C7.49387 6.99752 7.3647 7.08288 7.24956 7.18522C7.16582 7.26028 7.09857 7.35191 7.05206 7.45431C7.00555 7.5567 6.9808 7.66763 6.97937 7.78008V8.89197C6.97937 9.03942 7.03794 9.18083 7.1422 9.28509C7.24646 9.38935 7.38787 9.44792 7.53531 9.44792C7.68276 9.44792 7.82417 9.38935 7.92843 9.28509C8.03269 9.18083 8.09126 9.03942 8.09126 8.89197V7.94686L8.1324 7.92463C8.21579 7.88237 8.31697 7.83901 8.44707 7.78342L8.4593 7.77786C8.58939 7.72115 8.74061 7.65555 8.89516 7.57772C9.50336 7.2775 10.315 6.72045 10.315 5.55629C10.315 5.15045 10.1594 4.59006 9.71462 4.12862C9.25875 3.65496 8.54714 3.33251 7.53531 3.33251C6.52349 3.33251 5.81188 3.65384 5.356 4.12862C4.91124 4.59006 4.75558 5.15045 4.75558 5.55629C4.75558 5.70374 4.81415 5.84515 4.91841 5.94941C5.02267 6.05367 5.16408 6.11224 5.31153 6.11224C5.45897 6.11224 5.60038 6.05367 5.70464 5.94941C5.8089 5.84515 5.86747 5.70374 5.86747 5.55629C5.86747 5.40619 5.93419 5.13266 6.15657 4.89916ZM7.53531 12.2277C7.75648 12.2277 7.96859 12.1398 8.12498 11.9834C8.28137 11.827 8.36923 11.6149 8.36923 11.3937C8.36923 11.1726 8.28137 10.9605 8.12498 10.8041C7.96859 10.6477 7.75648 10.5598 7.53531 10.5598C7.31414 10.5598 7.10203 10.6477 6.94564 10.8041C6.78925 10.9605 6.70139 11.1726 6.70139 11.3937C6.70139 11.6149 6.78925 11.827 6.94564 11.9834C7.10203 12.1398 7.31414 12.2277 7.53531 12.2277Z" fill="url(#paint0_linear_239_41)"/>
<defs>
<linearGradient id="paint0_linear_239_41" x1="14.2067" y1="-0.00317357" x2="0.863939" y2="21.5287" gradientUnits="userSpaceOnUse">
<stop stop-color="#7879F1"/>
<stop offset="0.871" stop-color="#3D2167"/>
</linearGradient>
</defs>
</svg>
